<svg width="70" height="70" viewBox="0 0 70 70" fill="none" xmlns="http://www.w3.org/2000/svg">
<g filter="url(#filter0_d)">
<circle cx="34.7999" cy="22.0246" r="16.7999" fill="#6A4029"/>
</g>
<path d="M34.8 5.22461C25.5215 5.22461 18 12.7461 18 22.0246C18 31.3031 25.5215 38.8246 34.8 38.8246C44.0785 38.8246 51.6 31.3031 51.6 22.0246C51.6 12.7461 44.0785 5.22461 34.8 5.22461ZM38.7795 16.8341H36.2543C35.955 16.8341 35.6225 17.2279 35.6225 17.7511V19.5746H38.7813L38.3035 22.1751H35.6225V29.9819H32.6423V22.1751H29.9385V19.5746H32.6423V18.0451C32.6423 15.8506 34.1648 14.0674 36.2543 14.0674H38.7795V16.8341Z" fill="#FFBA33"/>
<defs>
<filter id="filter0_d" x="0" y="0.224609" width="69.5999" height="69.5999" filterUnits="userSpaceOnUse" color-interpolation-filters="sRGB">
<feFlood flood-opacity="0" result="BackgroundImageFix"/>
<feColorMatrix in="SourceAlpha" type="matrix" values="0 0 0 0 0 0 0 0 0 0 0 0 0 0 0 0 0 0 127 0" result="hardAlpha"/>
<feOffset dy="13"/>
<feGaussianBlur stdDeviation="9"/>
<feColorMatrix type="matrix" values="0 0 0 0 0.0658854 0 0 0 0 0.0730469 0 0 0 0 0.1375 0 0 0 0.08 0"/>
<feBlend mode="normal" in2="BackgroundImageFix" result="effect1_dropShadow"/>
<feBlend mode="normal" in="SourceGraphic" in2="effect1_dropShadow" result="shape"/>
</filter>
</defs>
</svg>
